# xmcd
#
# Track frame offsets: 
#        150
#        22982
#        39564
#        55530
#        78093
#        98000
#        118291
#        137650
#        156499
#        176632
#        197906
#        218371
#        243822
#        265181
#        284593
#        305129
#        326746
#        348344
#
# Disc length: 4793 seconds
#
# Revision: 0
# Processed by: cddbd v1.5.2PL0 Copyright (c) Steve Scherf et al.
# Submitted via: ExactAudioCopy v0.95b4
#
DISCID=0012b712
DTITLE=Chris Rea - The History Of the Last Romantic-CD1
DYEAR=2006
DGENRE=Ballad
TTITLE0=On the beach
TTITLE1=I just wanna be with you
TTITLE2=All Summer Long
TTITLE3=King of the beach
TTITLE4=Windy town
TTITLE5=The road to hell (part 2)
TTITLE6=Little blonde plaits
TTITLE7=Still Beautiful
TTITLE8=That's what they always say
TTITLE9=Auberge
TTITLE10=Where do we go from here
TTITLE11=Giverny
TTITLE12=As long as I have your love
TTITLE13=Hello Friend
TTITLE14=Your warm tender love
TTITLE15=Sail Away
TTITLE16=Shadows of the big man
TTITLE17=Bless them all
EXTD=
EXTT0=
EXTT1=
EXTT2=
EXTT3=
EXTT4=
EXTT5=
EXTT6=
EXTT7=
EXTT8=
EXTT9=
EXTT10=
EXTT11=
EXTT12=
EXTT13=
EXTT14=
EXTT15=
EXTT16=
EXTT17=
PLAYORDER=
